# xmcd CD database file
#
# Track frame offsets:
#	150
#	17573
#	26724
#	41378
#	59457
#	72993
#	83856
#	94958
#	107965
#	124363
#	140330
#	155801
#	177377
#
# Disc length: 4057 seconds
#
# Revision: 0
# Processed by: cddbd v1.5.2PL0 Copyright (c) Steve Scherf et al.
# Submitted via: Mozilla Thunderbird 15.0.1
#
DISCID=b90fd70d
DTITLE=Various Artist - Genocide Of The Unborn - Bodies On Display
DYEAR=2005
DGENRE=Death Metal
TTITLE0=Dyscrasia - Penetration Decimation (Anal Decapitation)
TTITLE1=Dyscrasia - Genocide Of The Unborn
TTITLE2=Dyscrasia - Semen Soaked C-Section
TTITLE3=Dyscrasia - Massive Morgue Molestations
TTITLE4=Dyscrasia - Grinded Into Fetal Sludge
TTITLE5=Dyscrasia - Atrocious Appetite For Cauterized Cooter
TTITLE6=Putrid Pile - Bodies On Display
TTITLE7=Putrid Pile - Drenched In Gasoline
TTITLE8=Putrid Pile - Merciless Homicide (Live)
TTITLE9=Putrid Pile - Covered In Excrement (Live)
TTITLE10=Putrid Pile - Gallery Of Horrors (Live)
TTITLE11=Putrid Pile - Shit Bodypainting (Live)
TTITLE12=DATA - Live Video Footage
EXTD=YEAR: 2005
EXTT0=
EXTT1=
EXTT2=
EXTT3=
EXTT4=
EXTT5=
EXTT6=
EXTT7=
EXTT8=
EXTT9=
EXTT10=
EXTT11=
EXTT12=
PLAYORDER=
